<?xml version="1.0" ?><svg xmlns="http://www.w3.org/2000/svg" xmlns:xlink="http://www.w3.org/1999/xlink" version="1.1" viewBox="0 0 512 512" style="enable-background:new 0 0 512 512;" xml:space="preserve"><g id="_x33_7_x2C__Diagram_x2C__infographic_x2C__business_and_finance_x2C__statistics_x2C__graph_x2C__chart"><g><g><path style="fill:#283954;" d="M506.31,354.22L476,336.72c-3.094-1.787-6.906-1.787-10,0l-25.25,14.579l-58.15-33.575V194.278     l57.462-33.176l25.318,14.618c3.094,1.787,6.908,1.786,10,0l30.311-17.5c3.094-1.786,5-5.088,5-8.66v-35     c0-3.572-1.906-6.874-5-8.66L475.38,88.4c-3.094-1.787-6.906-1.787-10,0l-30.31,17.5c-3.094,1.786-5,5.088-5,8.66v29.217     l-57.468,33.178L265.69,115.227V86.773L291,72.16c3.094-1.786,5-5.088,5-8.66v-35c0-3.572-1.906-6.874-5-8.66l-30.31-17.5     c-3.094-1.787-6.906-1.787-10,0l-30.311,17.5c-3.094,1.786-5,5.088-5,8.66v35c0,3.572,1.906,6.874,5,8.66l25.311,14.613v28.453     l-106.913,61.728L81.31,143.777V114.56c0-3.572-1.906-6.874-5-8.66L46,88.4c-3.094-1.787-6.906-1.787-10,0L5.69,105.9     c-3.094,1.786-5,5.088-5,8.66v35c0,3.572,1.906,6.874,5,8.66L36,175.72c3.094,1.787,6.908,1.786,10,0l25.318-14.618     l57.462,33.176v123.446L71.249,350.94L46.62,336.72c-3.094-1.787-6.906-1.787-10,0L6.31,354.22c-3.094,1.786-5,5.088-5,8.66v35     c0,3.572,1.906,6.874,5,8.66l30.311,17.5c3.094,1.787,6.908,1.786,10,0l30.31-17.5c3.094-1.786,5-5.088,5-8.66v-30.013     l56.848-32.822l106.913,61.728v28.453L220.38,439.84c-3.094,1.786-5,5.088-5,8.66v35c0,3.572,1.906,6.874,5,8.66l30.311,17.5     c3.094,1.787,6.908,1.786,10,0l30.31-17.5c3.094-1.786,5-5.088,5-8.66v-35c0-3.572-1.906-6.874-5-8.66l-25.31-14.613v-28.453     l106.911-61.728l58.089,33.539v29.295c0,3.572,1.906,6.874,5,8.66l30.31,17.5c3.094,1.787,6.908,1.786,10,0l30.31-17.5     c3.094-1.786,5-5.088,5-8.66v-35C511.31,359.308,509.403,356.006,506.31,354.22z M450.07,120.333l20.31-11.727l20.311,11.727     v23.453l-20.311,11.727l-20.31-11.727V120.333z M235.38,34.274l20.311-11.727L276,34.274v23.453l-20.31,11.727L235.38,57.727     V34.274z M61.31,143.786L41,155.513l-20.31-11.727v-23.453L41,108.607l20.31,11.727V143.786z M61.93,392.107l-20.31,11.727     L21.31,392.107v-23.453l20.311-11.727l20.31,11.727V392.107z M276,477.727l-20.31,11.727l-20.311-11.727v-23.453l20.311-11.727     L276,454.274V477.727z M265.69,373.679V343.88c0-5.522-4.478-10-10-10s-10,4.478-10,10v29.8l-86.913-50.181l25.804-14.898     c4.782-2.762,6.421-8.878,3.659-13.661c-2.763-4.782-8.877-6.423-13.661-3.659l-25.799,14.896V205.825l25.799,14.895     c4.778,2.758,10.894,1.131,13.661-3.659c2.762-4.783,1.123-10.899-3.659-13.661l-25.804-14.898l86.913-50.181v29.8     c0,5.522,4.478,10,10,10s10-4.478,10-10v-29.8l86.912,50.181L326.799,203.4c-4.782,2.762-6.421,8.878-3.659,13.661     c2.768,4.792,8.886,6.415,13.661,3.659l25.799-14.895v100.351l-25.799-14.896c-4.784-2.762-10.899-1.121-13.661,3.659     c-2.762,4.783-1.123,10.899,3.659,13.661l25.803,14.898L265.69,373.679z M491.31,392.107L471,403.833l-20.31-11.727v-23.453     L471,356.927l20.31,11.727V392.107z"/></g><g><path style="fill:#5596FB;" d="M336.8,203.4L260.69,159.46c-3.094-1.787-6.906-1.787-10,0L174.58,203.4     c-3.094,1.786-5,5.088-5,8.66v87.881c0,3.572,1.906,6.874,5,8.66l76.11,43.939c3.094,1.787,6.908,1.786,10,0l76.109-43.939     c3.094-1.786,5-5.088,5-8.66V212.06C341.8,208.488,339.894,205.186,336.8,203.4z M321.8,294.167l-66.109,38.166l-66.11-38.166     v-76.334l66.11-38.166l66.109,38.166V294.167z"/><path style="fill:#5596FB;" d="M213.1,237.38c0,5.522,4.478,10,10,10h65.181c5.522,0,10-4.478,10-10s-4.478-10-10-10H223.1     C217.577,227.38,213.1,231.858,213.1,237.38z"/><path style="fill:#5596FB;" d="M251.03,264.62H223.1c-5.522,0-10,4.478-10,10s4.478,10,10,10h27.931c5.522,0,10-4.478,10-10     S256.553,264.62,251.03,264.62z"/></g></g></g><g id="Layer_1"/></svg>